<svg width="12" height="12" viewBox="0 0 12 12" fill="none" xmlns="http://www.w3.org/2000/svg">
<path d="M6 4.66667C5.26667 4.66667 4.66667 5.26667 4.66667 6C4.66667 6.73333 5.26667 7.33333 6 7.33333C6.73333 7.33333 7.33333 6.73333 7.33333 6C7.33333 5.26667 6.73333 4.66667 6 4.66667ZM10.6667 0H1.33333C0.593333 0 0 0.6 0 1.33333V10.6667C0 11.4 0.593333 12 1.33333 12H10.6667C11.4067 12 12 11.4 12 10.6667V1.33333C12 0.6 11.4067 0 10.6667 0ZM9.5 6C9.5 6.15333 9.48667 6.30667 9.46667 6.45333L10.4533 7.22667C10.54 7.3 10.5667 7.42667 10.5067 7.52667L9.57333 9.14C9.51333 9.24 9.39333 9.28 9.28667 9.24L8.12667 8.77333C7.88667 8.96 7.62 9.11333 7.34 9.23333L7.16667 10.4667C7.14667 10.58 7.04667 10.6667 6.93333 10.6667H5.06667C4.95333 10.6667 4.85333 10.58 4.83333 10.4733L4.66 9.24C4.37333 9.12 4.11333 8.96667 3.87333 8.78L2.71333 9.24667C2.60667 9.28667 2.48667 9.24667 2.42667 9.14667L1.49333 7.53333C1.43333 7.43333 1.46 7.30667 1.54667 7.23333L2.53333 6.46C2.51333 6.30667 2.5 6.15333 2.5 6C2.5 5.84667 2.51333 5.69333 2.53333 5.54667L1.54667 4.77333C1.46 4.7 1.43333 4.57333 1.49333 4.47333L2.42667 2.86C2.48667 2.76 2.60667 2.72 2.71333 2.76L3.87333 3.22667C4.11333 3.04 4.38 2.88667 4.66 2.76667L4.83333 1.53333C4.85333 1.42 4.95333 1.33333 5.06667 1.33333H6.93333C7.04667 1.33333 7.14667 1.42 7.16667 1.52667L7.34 2.76C7.62667 2.88 7.88667 3.03333 8.12667 3.22L9.28667 2.75333C9.39333 2.71333 9.51333 2.75333 9.57333 2.85333L10.5067 4.46667C10.5667 4.56667 10.54 4.69333 10.4533 4.76667L9.46667 5.54C9.48667 5.69333 9.5 5.84667 9.5 6Z" fill="black"/>
</svg>
